<svg xmlns="http://www.w3.org/2000/svg" viewBox="0 0 200 200" width="200" height="200">
  <defs></defs>

  <!-- Shield shape -->
  <path d="M 100 30 L 160 60 L 160 110 C 160 145 100 165 100 165 C 100 165 40 145 40 110 L 40 60 Z" 
        fill="none" stroke="white" stroke-width="3" stroke-linejoin="round"/>

  <!-- Lock circle (top of shield) -->
  <circle cx="100" cy="80" r="18" fill="none" stroke="white" stroke-width="2.5"/>

  <!-- Lock shackle -->
  <path d="M 85 80 Q 85 65 100 65 Q 115 65 115 80" 
        fill="none" stroke="white" stroke-width="2.5" stroke-linecap="round"/>

  <!-- Lock keyhole -->
  <circle cx="100" cy="85" r="3" fill="white"/>
  <path d="M 100 88 L 100 95" stroke="white" stroke-width="2" stroke-linecap="round"/>

  <!-- Circuit lines (bottom of shield) -->
  <g stroke="white" stroke-width="1.5" stroke-linecap="round" fill="none">
    <!-- Left circuit line -->
    <path d="M 75 115 L 75 130 L 70 130"/>
    <!-- Right circuit line -->
    <path d="M 125 115 L 125 130 L 130 130"/>
    <!-- Center circuit line -->
    <path d="M 100 115 L 100 135"/>
  </g>

  <!-- Circuit nodes -->
  <circle cx="70" cy="130" r="2.5" fill="white"/>
  <circle cx="100" cy="135" r="2.5" fill="white"/>
  <circle cx="130" cy="130" r="2.5" fill="white"/>
</svg>
