<svg xmlns="http://www.w3.org/2000/svg" viewBox="0 0 200 200">
  <rect width="200" height="200" fill="#1a1a1a"/>
  <path d="M 100 30 L 160 60 L 160 110 C 160 145 100 165 100 165 C 100 165 40 145 40 110 L 40 60 Z" fill="none" stroke="white" stroke-width="8" stroke-linejoin="round"/>
  <circle cx="100" cy="80" r="30" fill="none" stroke="white" stroke-width="7"/>
  <path d="M 85 80 Q 85 65 100 65 Q 115 65 115 80" fill="none" stroke="white" stroke-width="7" stroke-linecap="round"/>
  <circle cx="100" cy="85" r="8" fill="white"/>
  <path d="M 100 95 L 100 110" stroke="white" stroke-width="7" stroke-linecap="round"/>
  <g stroke="white" stroke-width="5" stroke-linecap="round" fill="none">
    <path d="M 75 115 L 75 130 L 70 130"/>
    <path d="M 125 115 L 125 130 L 130 130"/>
    <path d="M 100 115 L 100 135"/>
  </g>
  <circle cx="70" cy="130" r="7" fill="white"/>
  <circle cx="100" cy="135" r="7" fill="white"/>
  <circle cx="130" cy="130" r="7" fill="white"/>
</svg>
