<?xml version="1.0" encoding="UTF-8"?>
<svg id="Layer_1" data-name="Layer 1" xmlns="http://www.w3.org/2000/svg" viewBox="0 0 357.17 117.62">
  <defs>
    <style>
      .cls-1 {
        fill: #e30046;
      }
    </style>
  </defs>
  <path class="cls-1" d="M307.8,70.72c1.51,0,2.61.95,2.85,2.42h-5.72c.24-1.49,1.34-2.42,2.87-2.42M313.82,74.2c0-3.74-2.64-6.03-6.05-6.03s-6.2,2.5-6.2,5.98,2.61,5.98,6.63,5.98c2.1,0,3.72-.65,4.8-1.88l-1.79-1.94c-.8.76-1.68,1.12-2.92,1.12-1.77,0-3-.88-3.33-2.33h8.79c.02-.28.06-.65.06-.91M294.89,80.14c3.48,0,5.49-1.53,5.49-3.69,0-4.58-7.02-2.66-7.02-4.64,0-.6.65-1.08,2.16-1.08,1.06,0,2.2.22,3.35.86l1.12-2.4c-1.1-.65-2.87-1.01-4.47-1.01-3.39,0-5.38,1.55-5.38,3.76,0,4.64,7.02,2.7,7.02,4.6,0,.65-.58,1.06-2.14,1.06-1.43,0-3-.45-4.04-1.12l-1.12,2.42c1.08.71,3.07,1.25,5.03,1.25M284.52,79.96h3.37v-11.62h-3.37v11.62ZM286.21,66.72c1.25,0,2.09-.82,2.09-1.94,0-1.04-.84-1.81-2.09-1.81s-2.09.82-2.09,1.88.84,1.88,2.09,1.88M281.91,77.03c-.37.28-.86.43-1.36.43-.91,0-1.45-.54-1.45-1.53v-4.73h2.89v-2.59h-2.89v-2.83h-3.37v2.83h-1.79v2.59h1.79v4.77c0,2.77,1.6,4.17,4.34,4.17,1.04,0,2.05-.24,2.74-.73l-.91-2.38ZM268.92,69.88v-1.53h-3.22v11.62h3.37v-5.49c0-2.22,1.23-3.24,3.09-3.24.26,0,.47.02.76.04v-3.11c-1.79,0-3.18.58-4,1.71M257.55,70.72c1.51,0,2.61.95,2.85,2.42h-5.72c.24-1.49,1.34-2.42,2.87-2.42M263.58,74.2c0-3.74-2.63-6.03-6.05-6.03s-6.2,2.5-6.2,5.98,2.61,5.98,6.63,5.98c2.09,0,3.72-.65,4.8-1.88l-1.79-1.94c-.8.76-1.68,1.12-2.92,1.12-1.77,0-3-.88-3.33-2.33h8.79c.02-.28.06-.65.06-.91M243.58,77.37c-1.68,0-2.96-1.21-2.96-3.22s1.27-3.22,2.96-3.22,2.96,1.21,2.96,3.22-1.27,3.22-2.96,3.22M244.17,68.17c-1.56,0-2.81.5-3.65,1.51v-1.34h-3.22v15.81h3.37v-5.42c.86.95,2.05,1.4,3.5,1.4,3.26,0,5.79-2.33,5.79-5.98s-2.53-5.98-5.79-5.98M235.8,79.96l-4.49-5.94,4.32-5.68h-3.59l-2.53,3.39-2.46-3.39h-3.78l4.32,5.77-4.47,5.85h3.67l2.64-3.56,2.55,3.56h3.82ZM213.59,77.16v-3.5h7.02v-2.72h-7.02v-3.28h7.95v-2.81h-11.43v15.12h11.71v-2.81h-8.23Z"/>
  <path class="cls-1" d="M309.01,39.43c-1.49,0-2.79.47-3.69,1.38v-5.62h-3.37v16.03h3.37v-5.75c0-2.14,1.17-3.13,2.79-3.13,1.49,0,2.35.86,2.35,2.74v6.13h3.37v-6.65c0-3.54-2.07-5.14-4.82-5.14M294.48,51.39c2.44,0,4.36-1.08,5.21-2.94l-2.61-1.43c-.63,1.12-1.56,1.6-2.61,1.6-1.71,0-3.05-1.19-3.05-3.22s1.34-3.22,3.05-3.22c1.06,0,1.99.5,2.61,1.6l2.61-1.4c-.84-1.9-2.77-2.96-5.21-2.96-3.78,0-6.48,2.48-6.48,5.98s2.7,5.98,6.48,5.98M282.59,41.13v-1.53h-3.22v11.62h3.37v-5.49c0-2.22,1.23-3.24,3.09-3.24.26,0,.47.02.76.04v-3.11c-1.79,0-3.18.58-4,1.71M270.28,49.12c-1.19,0-1.9-.56-1.9-1.4,0-.78.5-1.36,2.07-1.36h2.31v1.19c-.39,1.06-1.36,1.58-2.48,1.58M270.54,39.43c-1.86,0-3.74.5-5.01,1.4l1.21,2.35c.84-.67,2.12-1.08,3.35-1.08,1.81,0,2.68.84,2.68,2.29h-2.68c-3.54,0-4.99,1.43-4.99,3.48s1.62,3.52,4.34,3.52c1.71,0,2.92-.56,3.54-1.62v1.45h3.15v-6.63c0-3.52-2.05-5.16-5.59-5.16M257.35,41.97c1.51,0,2.61.95,2.85,2.42h-5.72c.24-1.49,1.34-2.42,2.87-2.42M263.38,45.45c0-3.74-2.64-6.03-6.05-6.03s-6.2,2.5-6.2,5.98,2.61,5.98,6.63,5.98c2.1,0,3.72-.65,4.8-1.88l-1.79-1.94c-.8.76-1.68,1.12-2.92,1.12-1.77,0-3-.89-3.33-2.33h8.79c.02-.28.06-.65.06-.91M244.03,51.39c3.48,0,5.49-1.53,5.49-3.69,0-4.58-7.02-2.66-7.02-4.64,0-.6.65-1.08,2.16-1.08,1.06,0,2.2.22,3.35.86l1.12-2.4c-1.1-.65-2.87-1.01-4.47-1.01-3.39,0-5.38,1.56-5.38,3.76,0,4.64,7.02,2.7,7.02,4.6,0,.65-.58,1.06-2.14,1.06-1.43,0-3-.45-4.04-1.12l-1.12,2.42c1.08.71,3.07,1.25,5.03,1.25M231.43,41.97c1.51,0,2.61.95,2.85,2.42h-5.72c.24-1.49,1.34-2.42,2.87-2.42M237.45,45.45c0-3.74-2.64-6.03-6.05-6.03s-6.2,2.5-6.2,5.98,2.61,5.98,6.63,5.98c2.1,0,3.72-.65,4.8-1.88l-1.79-1.94c-.8.76-1.68,1.12-2.92,1.12-1.77,0-3-.89-3.33-2.33h8.79c.02-.28.06-.65.06-.91M219.68,41.59c0,1.64-1.08,2.64-3.22,2.64h-2.85v-5.27h2.85c2.14,0,3.22.97,3.22,2.64M223.51,51.22l-3.39-4.86c1.97-.84,3.11-2.51,3.11-4.77,0-3.39-2.53-5.49-6.57-5.49h-6.55v15.12h3.5v-4.21h3.22l2.92,4.21h3.76Z"/>
  <path class="cls-1" d="M325.11,62.51c-1.7,0-2.75-.79-2.75-1.92,0-.95.51-1.65,1.92-2.47l3.72,3.48c-.84.59-1.83.9-2.88.9M325.6,51.65c.99,0,1.52.53,1.52,1.28,0,.7-.49,1.28-2,2.09-.95-.92-1.19-1.36-1.19-1.96,0-.81.62-1.41,1.67-1.41M333.74,63.02l-1.81-1.67c.66-.99,1.12-2.18,1.41-3.5l-2.75-.86c-.18.9-.44,1.72-.77,2.4l-2.82-2.62c2.09-1.14,3.02-2.31,3.02-3.9,0-2.18-1.76-3.54-4.43-3.54-2.91,0-4.8,1.54-4.8,3.79,0,1.1.46,2.09,1.59,3.26-2.36,1.32-3.39,2.66-3.39,4.6,0,2.47,2.49,4.23,5.88,4.23,1.98,0,3.74-.62,5.15-1.72l1.85,1.72,1.87-2.18Z"/>
  <path class="cls-1" d="M210.06,54.83h103.97s.22,1.91-.09,5.55l-103.89-3.28v-2.27Z"/>
  <g>
    <path class="cls-1" d="M90.02,57.34l-20.24.15s0,.08,0,.13c0,.14,0,.27-.01.41,0,.02,0,.04,0,.07,0,.13-.01.26-.02.38,0,.02,0,.04,0,.06l20.19,1.39h.11c.06-.8.08-1.67.04-2.59h-.07Z"/>
    <path class="cls-1" d="M45.36,89.12h0c1,.37,2.03.68,3.07.94h0l3.47-13.89c-.51-.42-1.01-.86-1.48-1.32l-5.07,14.27Z"/>
    <path class="cls-1" d="M31.1,79.29s.03.03.04.05c.04.05.09.1.13.16.58.66,1.18,1.3,1.8,1.92.07.06.13.14.2.2,0,0,.01.01.02.01l12.58-12.97c-.23-.46-.45-.92-.65-1.39l-14.13,12.02Z"/>
    <path class="cls-1" d="M51.01,90.59h0s.04.01.06.01c.06.01.13.02.19.03.86.14,1.74.25,2.61.32.1,0,.19.01.29.02h.04l.7-10.09-.7,10.09.87-12.61c-.62-.36-1.23-.75-1.82-1.16l-2.25,13.4Z"/>
    <path class="cls-1" d="M40.05,86.69h0c.08.04.15.08.22.12.02,0,.03.01.03.02.85.48,1.72.92,2.61,1.31h0s6.44-14.42,6.44-14.42c-.39-.45-.79-.9-1.15-1.38l-8.16,14.34Z"/>
    <path class="cls-1" d="M35.25,83.38s.03.03.04.04c.06.04.12.1.18.15.68.56,1.39,1.08,2.11,1.58h0c.07.06.15.1.22.16,0,0,.02,0,.02,0l9.56-14.1c-.31-.45-.6-.93-.88-1.4l-11.25,13.57Z"/>
    <path class="cls-1" d="M23.68,63.65h0c.01.08.03.16.04.25,0,.01,0,.02,0,.03.19.96.41,1.91.68,2.85l19.18-5.47c-.06-.43-.11-.85-.14-1.28l-19.77,3.63Z"/>
    <path class="cls-1" d="M27.74,74.55h0c.04.06.08.12.11.19,0,0,.02.02.03.03.45.75.92,1.49,1.43,2.21h0c.06.07.11.14.16.21.01,0,.02.03.04.05l15.3-11.09c-.16-.44-.31-.9-.45-1.35l-16.6,9.76Z"/>
    <path class="cls-1" d="M43.76,62.37l-18.52,6.91h0c.37,1,.8,2,1.27,2.95h0s17.54-8.54,17.54-8.54c-.1-.43-.2-.88-.28-1.32"/>
    <path class="cls-1" d="M82.33,78.95s.02-.02.02-.04c.05-.06.1-.13.16-.18.56-.68,1.08-1.39,1.58-2.1.05-.07.1-.14.14-.21.01,0,.01-.01.02-.02l-1.7-1.15c-.75.69-1.54,1.34-2.37,1.94l2.14,1.78Z"/>
    <path class="cls-1" d="M85.64,74.16h0c.05-.08.08-.17.13-.25,0,0,.01-.01.02-.02.47-.84.91-1.72,1.3-2.6l-.87-.4c-.58.89-1.21,1.73-1.9,2.51l1.31.75Z"/>
    <path class="cls-1" d="M43.37,57.87c0-.05,0-.1,0-.15h0l-20.24.13c0,.1,0,.19,0,.29.02.87.07,1.76.14,2.63h0c.01.08.02.17.03.26v.02l20.09-2.06c-.01-.28-.02-.57-.02-.86,0-.09,0-.17,0-.26"/>
    <path class="cls-1" d="M78.24,83.09s.02-.02.04-.03c.05-.06.11-.1.16-.15.66-.57,1.31-1.17,1.92-1.79.06-.06.11-.12.17-.17.01-.01.03-.02.04-.04l-2.48-2.42c-.87.49-1.76.91-2.68,1.29l2.83,3.31Z"/>
    <path class="cls-1" d="M66.7,81.46c-.44,0-.86,0-1.28-.03l2.8,7.54h0c1-.37,1.99-.79,2.95-1.26h0s-3.06-6.29-3.06-6.29c-.47.02-.94.04-1.42.04"/>
    <path class="cls-1" d="M56.79,91.06c.1,0,.2,0,.29,0,.88-.01,1.76-.05,2.63-.14.09,0,.18-.02.27-.03h.02l-1.1-10.76c-.74-.26-1.46-.57-2.17-.9l.07,11.84Z"/>
    <path class="cls-1" d="M60.8,80.71l1.8,9.81c.08-.01.16-.03.25-.05.02,0,.03,0,.04,0,.95-.18,1.92-.4,2.85-.67h0s-2.44-8.57-2.44-8.57c-.84-.13-1.67-.29-2.49-.51"/>
    <path class="cls-1" d="M73.49,86.46h.01c.06-.03.13-.07.2-.11,0-.02.02-.02.04-.02.74-.45,1.48-.93,2.19-1.43h0c.07-.05.13-.1.19-.14.02-.02.04-.03.06-.04l-3.01-4.17c-.9.26-1.83.47-2.78.62l3.11,5.29Z"/>
    <path class="cls-1" d="M27.49,41.1h0c-.04.07-.08.14-.12.21,0,.01-.01.02-.01.03-.49.85-.92,1.73-1.32,2.61h0s18.13,8.11,18.13,8.11c.12-.44.24-.85.38-1.28l-17.06-9.69Z"/>
    <path class="cls-1" d="M79.12,38.38l2.9-2.47h0s-.02-.02-.03-.03c-.05-.05-.09-.1-.14-.16-.57-.66-1.17-1.31-1.8-1.92-.06-.06-.13-.13-.19-.19-.02-.01-.03-.03-.04-.04h0s-3.29,3.41-3.29,3.41c.89.41,1.75.88,2.58,1.4"/>
    <path class="cls-1" d="M85.4,40.64h0c-.04-.06-.07-.12-.11-.18,0-.01-.02-.02-.02-.03h0c-.45-.75-.93-1.48-1.44-2.2h0c-.06-.07-.11-.15-.17-.22-.02-.02-.03-.03-.03-.05h0s-2.52,1.84-2.52,1.84c.8.63,1.55,1.31,2.26,2.03l2.01-1.19Z"/>
    <path class="cls-1" d="M73.07,28.51h0c-.07-.04-.14-.08-.22-.12,0,0-.02-.01-.03-.02-.85-.47-1.74-.92-2.62-1.32h0s-3.45,7.75-3.45,7.75c.9,0,1.79.06,2.66.16l3.67-6.45Z"/>
    <path class="cls-1" d="M87.91,45.91h0c-.37-1-.8-2-1.27-2.95h0s-1.58.78-1.58.78c.64.81,1.23,1.68,1.76,2.58l1.09-.4Z"/>
    <path class="cls-1" d="M89.47,51.53c-.01-.08-.03-.15-.05-.23,0,0,0-.02,0-.03-.19-.96-.41-1.92-.69-2.87h0l-.72.21c.43.96.8,1.96,1.1,2.99l.37-.07Z"/>
    <path class="cls-1" d="M67.76,26.09h0c-1-.37-2.04-.68-3.08-.93h0s-2.5,10.09-2.5,10.09c.81-.16,1.63-.27,2.47-.35l3.12-8.8Z"/>
    <path class="cls-1" d="M77.87,31.82s-.02-.02-.03-.03c-.06-.05-.12-.1-.18-.14-.67-.56-1.39-1.08-2.11-1.58h0c-.08-.06-.15-.1-.23-.16-.01,0-.01,0-.02-.01l-3.68,5.43c.93.2,1.83.46,2.71.76l3.54-4.26Z"/>
    <path class="cls-1" d="M39.62,28.78c-.06.03-.13.07-.18.11-.02,0-.02.01-.03.02h0c-.75.46-1.49.93-2.2,1.44h0c-.06.05-.13.1-.2.15-.02.01-.04.03-.06.04l10.49,14.45c.3-.45.62-.89.97-1.32l-8.77-14.89Z"/>
    <path class="cls-1" d="M30.8,36.3s0,0-.01.01c-.05.07-.11.14-.16.2-.56.68-1.08,1.39-1.58,2.11h0c-.05.07-.1.15-.15.22,0,0,0,.01-.01.02h0s16.06,10.88,16.06,10.88c.17-.44.35-.87.54-1.3l-14.67-12.14Z"/>
    <path class="cls-1" d="M46.74,46.06l-11.85-13.91s-.02.01-.02.02c-.06.05-.12.1-.18.15-.66.57-1.31,1.17-1.92,1.8-.05.06-.12.12-.18.18-.01.01-.03.03-.04.04h0s13.45,13.03,13.45,13.03c.24-.44.48-.89.74-1.31"/>
    <path class="cls-1" d="M50.51,24.71h0c-.08.01-.17.03-.26.05t-.02,0c-.95.18-1.92.41-2.86.68h0s4.24,14.87,4.24,14.87c.5-.42,1.01-.81,1.54-1.19l-2.66-14.42Z"/>
    <path class="cls-1" d="M56.32,24.16l-3.2.17,1.43,13.87c.61-.36,1.22-.7,1.86-1.02l-.09-13.02Z"/>
    <path class="cls-1" d="M44.89,26.28h0c-1,.37-1.99.79-2.95,1.26h0s7.35,15.07,7.35,15.07c.39-.44.8-.86,1.22-1.27l-5.62-15.06Z"/>
    <path class="cls-1" d="M62.11,24.63h0s-.06-.01-.09-.02c-.05,0-.1-.01-.15-.02-.86-.14-1.73-.25-2.6-.31l-.36-.03-.83,12.2c.7-.29,1.43-.53,2.18-.74l1.85-11.08Z"/>
    <path class="cls-1" d="M67.52,65.01l15.04,10.22c.63-.58,1.21-1.19,1.77-1.83l-16.27-9.27c-.17.3-.35.6-.54.88"/>
    <path class="cls-1" d="M45.63,50.22l-.7-.48c-.13.35-.26.69-.38,1.05l.54.31c.17-.3.35-.6.54-.88"/>
    <path class="cls-1" d="M44.52,52.23l-.35-.15c-.09.34-.17.68-.24,1.03l.21.08c.12-.32.24-.64.38-.95"/>
    <path class="cls-1" d="M88.07,68.84h.01c.36-.99.66-2.03.92-3.06l-.24-.08c-.34,1.02-.76,2-1.25,2.94l.55.19Z"/>
    <path class="cls-1" d="M89.48,63.19l-19.89-3.36c-.06.34-.13.68-.21,1.01l19.39,4.86s.41-.93.78-2.51h-.07Z"/>
    <path class="cls-1" d="M46.39,49.21c.22-.27.45-.53.7-.78l-1.09-1.06c-.19.36-.36.71-.53,1.07l.92.76Z"/>
    <path class="cls-1" d="M66.05,66.81l12.04,11.68c.72-.4,1.42-.84,2.09-1.31l-13.43-11.15c-.22.27-.46.53-.7.78"/>
    <path class="cls-1" d="M68.63,63.01s0,0,0,0l17.6,7.88c.47-.72.9-1.47,1.29-2.24l-18.51-6.6c-.12.33-.25.65-.39.96"/>
    <path class="cls-1" d="M48.06,47.53c.25-.21.51-.41.78-.61l-1.4-1.93c-.24.34-.48.7-.7,1.07l1.28,1.5s.03-.02.04-.03"/>
    <path class="cls-1" d="M50.81,45.73l-1.52-3.12c-.31.35-.61.7-.89,1.06l1.5,2.55c.3-.17.6-.34.91-.49"/>
    <path class="cls-1" d="M64.31,68.32l8.85,12.23c.77-.22,1.52-.47,2.25-.77l-10.29-12.1c-.26.22-.54.44-.82.64"/>
    <path class="cls-1" d="M47.39,67.1l-1.51,1.56c.2.39.41.77.62,1.15l1.67-2c-.27-.22-.53-.46-.78-.7"/>
    <path class="cls-1" d="M56.57,70.82c-.32,0-.64-.02-.96-.04l-.36,5.1-.18,2.47c.53.31,1.09.6,1.64.87l-.04-8.4s-.07,0-.1,0"/>
    <path class="cls-1" d="M45.87,65.35l-1.09.79c.14.38.29.75.45,1.13l1.28-1.1c-.22-.26-.44-.54-.64-.82"/>
    <path class="cls-1" d="M51.18,69.67l-1.82,4.06c.35.39.71.75,1.07,1.12l1.7-4.79c-.32-.12-.64-.24-.95-.38"/>
    <path class="cls-1" d="M49.18,68.56l-1.8,2.65c.26.39.55.77.83,1.14l1.85-3.25c-.3-.17-.59-.35-.88-.54"/>
    <path class="cls-1" d="M57.94,70.75l.95,9.37c.63.22,1.27.42,1.91.59l-1.84-10.11c-.34.06-.67.11-1.02.15"/>
    <path class="cls-1" d="M43.44,58.98h-.05c.01.35.04.7.06,1.04l.14-.02c-.06-.34-.12-.68-.15-1.02"/>
    <path class="cls-1" d="M63.25,69.01c-.3.18-.6.34-.92.49l5.79,11.92c.77-.06,1.53-.13,2.25-.25l-7.13-12.16Z"/>
    <path class="cls-1" d="M53.34,70.42l-1.44,5.74c.44.35.89.7,1.35,1.02l1.1-6.56c-.34-.06-.68-.13-1.01-.21"/>
    <path class="cls-1" d="M43.87,61.23l-.28.08c.05.36.1.71.17,1.06l.43-.16c-.12-.32-.22-.65-.32-.98"/>
    <path class="cls-1" d="M44.69,63.38l-.65.32c.09.36.19.73.29,1.09l.84-.5c-.17-.3-.34-.6-.49-.91"/>
    <path class="cls-1" d="M60.19,70.32l3.1,10.89c.7.1,1.42.17,2.14.21l-4.26-11.42c-.32.12-.65.22-.98.32"/>
    <path class="cls-1" d="M52.95,44.92l-1.32-4.6c-.37.33-.75.67-1.12,1.01l1.46,3.9c.32-.12.65-.22.98-.32"/>
    <path class="cls-1" d="M54.17,44.63c.17-.03.34-.06.51-.08.17-.03.34-.05.51-.07l-.64-6.27c-.47.29-.94.6-1.38.92l1,5.5h0Z"/>
    <path class="cls-1" d="M63.05,46.11c.14.08.28.16.41.24.15.09.3.19.44.28.02.01.03.02.05.03l7.67-11.34c-.72-.15-1.47-.27-2.22-.36l-6.33,11.16s-.02,0-.03-.01"/>
    <path class="cls-1" d="M63.97,46.68s0,0-.01,0c0,0,0,0,.01,0,0,0,0,0,0,0"/>
    <path class="cls-1" d="M64.97,47.42s.06.05.09.08c.12.1.24.21.37.32.03.03.06.06.1.09.08.07.16.14.23.21l10.79-11.14c-.72-.34-1.44-.64-2.2-.89l-9.37,11.34Z"/>
    <path class="cls-1" d="M66.69,49.13c.2.24.39.48.57.74,0,0,0,0,0-.01l13.86-10.06c-.64-.51-1.31-.98-2.01-1.42l-12.49,10.66s.05.06.07.09"/>
    <path class="cls-1" d="M67.96,50.93c.17.29.34.6.49.91l16.61-8.1c-.53-.67-1.08-1.3-1.67-1.9l-15.43,9.1s0,0,0,0"/>
    <path class="cls-1" d="M69.27,53.97l18.73-5.36c-.36-.79-.75-1.56-1.18-2.3l-17.87,6.69c.12.32.22.64.32.97"/>
    <path class="cls-1" d="M56.55,44.41s.01,0,.02,0c.02,0,.03,0,.05,0,.18,0,.36,0,.54.01.07,0,.14,0,.22.01.05,0,.1,0,.16,0l.54-8c-.56.23-1.13.47-1.67.74l.04,7.22s.06,0,.1,0"/>
    <path class="cls-1" d="M58.78,44.59h0c.34.06.68.13,1.01.21l2.38-9.56c-.64.12-1.29.28-1.91.46l-1.49,8.89Z"/>
    <path class="cls-1" d="M61,45.17c.32.11.64.24.95.38h0s4.81-10.75,4.81-10.75h-.05c-.7,0-1.39.03-2.07.09l-3.64,10.28h0Z"/>
    <path class="cls-1" d="M69.71,56.22l19.98-2.07c-.14-.87-.34-1.72-.59-2.55l-19.55,3.6c.06.34.11.68.15,1.02"/>
    <path class="cls-1" d="M43.4,56.64h0s0,0,0,0h0c.02-.43.06-.91.1-1.24h.04c.06-.34.13-.67.21-1.01l-.09-.04s.21-1.15.24-1.25h0s0,0,0,0l-18.86-6.69h0c-.36,1-.67,2.04-.93,3.08h0l19.54,4.87c-.06.38-.11.73-.15,1.04l-19.93-3.34s0,.05-.01.09c0,.05-.02.1-.02.16-.14.86-.25,1.74-.31,2.6,0,.1-.02.19-.03.28v.07s20.18,1.37,20.18,1.37h0Z"/>
  </g>
  <polygon class="cls-1" points="108.13 75.67 102.95 75.67 102.95 80.05 101.86 80.05 101.86 70.66 102.95 70.66 102.95 74.62 108.13 74.62 108.13 70.66 109.23 70.66 109.23 80.05 108.13 80.05 108.13 75.67"/>
  <g>
    <path class="cls-1" d="M115.9,79.18c2.11,0,3.77-1.45,3.77-3.84s-1.66-3.84-3.77-3.84-3.77,1.46-3.77,3.84,1.65,3.84,3.77,3.84M115.9,70.48c2.74,0,4.87,1.96,4.87,4.87s-2.13,4.88-4.87,4.88-4.87-1.96-4.87-4.88,2.12-4.87,4.87-4.87"/>
    <path class="cls-1" d="M130.43,80.05c0-1.07.01-1.23.01-1.36h-.03c-.46.52-1.62,1.53-3.47,1.53-2.67,0-4.82-1.93-4.82-4.88s2.09-4.87,4.86-4.87c2.15,0,3.68,1.17,4.27,2.56l-1.07.3c-.31-.58-1.19-1.82-3.22-1.82-2.17,0-3.73,1.47-3.73,3.82s1.64,3.85,3.78,3.85c1.77,0,3-.98,3.38-1.68v-1.34h-2.79v-1.02h3.81v4.91h-.98Z"/>
  </g>
  <polygon class="cls-1" points="133.51 70.66 139.83 70.66 139.83 71.68 134.6 71.68 134.6 74.63 138.68 74.63 138.68 75.65 134.6 75.65 134.6 79.03 139.86 79.03 139.86 80.05 133.51 80.05 133.51 70.66"/>
  <g>
    <path class="cls-1" d="M142.32,77.3c.11,1.34,1.22,1.95,2.66,1.95s2.2-.55,2.2-1.68c0-1.54-1.56-1.62-2.72-1.88-1.27-.29-2.91-.75-2.91-2.66,0-1.64,1.21-2.56,3.18-2.56,1.74,0,3.03.72,3.43,2.33l-1.05.28c-.26-1.03-1.02-1.64-2.4-1.64s-2.05.59-2.05,1.54c0,1.25,1.18,1.52,2.52,1.78,1.39.27,3.11.71,3.11,2.78,0,1.77-1.23,2.67-3.33,2.67-1.58,0-3.39-.52-3.69-2.64l1.05-.28Z"/>
    <path class="cls-1" d="M158.75,77.41c-.72,1.77-2.4,2.82-4.39,2.82-2.74,0-4.83-1.93-4.83-4.9s2.08-4.86,4.83-4.86c2.17,0,3.68,1.18,4.27,2.56l-1.06.29c-.35-.64-1.27-1.82-3.23-1.82-2.17,0-3.7,1.48-3.7,3.84s1.61,3.84,3.68,3.84c1.53,0,2.79-.79,3.38-2.05l1.06.28Z"/>
  </g>
  <polygon class="cls-1" points="166.91 75.67 161.73 75.67 161.73 80.05 160.64 80.05 160.64 70.66 161.73 70.66 161.73 74.62 166.91 74.62 166.91 70.66 168.01 70.66 168.01 80.05 166.91 80.05 166.91 75.67"/>
  <g>
    <path class="cls-1" d="M174.68,79.18c2.11,0,3.77-1.45,3.77-3.84s-1.66-3.84-3.77-3.84-3.77,1.46-3.77,3.84,1.65,3.84,3.77,3.84M174.68,70.48c2.74,0,4.87,1.96,4.87,4.87s-2.13,4.88-4.87,4.88-4.87-1.96-4.87-4.88,2.12-4.87,4.87-4.87"/>
    <path class="cls-1" d="M185.77,79.18c2.11,0,3.77-1.45,3.77-3.84s-1.66-3.84-3.77-3.84-3.77,1.46-3.77,3.84,1.65,3.84,3.77,3.84M185.77,70.48c2.74,0,4.87,1.96,4.87,4.87s-2.13,4.88-4.87,4.88-4.87-1.96-4.87-4.88,2.12-4.87,4.87-4.87"/>
  </g>
  <polygon class="cls-1" points="192.46 70.66 193.54 70.66 193.54 79.03 198.49 79.03 198.49 80.05 192.46 80.05 192.46 70.66"/>
  <g>
    <path class="cls-1" d="M101.86,51.36v-15.81h5.31v14.11c0,5.14,1.12,9.25,6.72,9.25s6.72-4.11,6.72-9.25v-14.11h5.31v15.81c0,7.51-3.86,12.41-12.04,12.41s-12.04-4.9-12.04-12.41"/>
    <path class="cls-1" d="M130.25,49.38c0-8.7,6.02-14.39,14.32-14.39,3.03,0,6.14.63,8.26,1.62l-.58,4.82c-2.41-.91-4.65-1.58-7.68-1.58-5.64,0-8.51,3.99-8.51,9.53s2.86,9.53,8.51,9.53c3.03,0,5.27-.67,7.68-1.58l.58,4.82c-2.12.99-5.23,1.62-8.26,1.62-8.3,0-14.32-5.69-14.32-14.39"/>
  </g>
  <polygon class="cls-1" points="157.15 63.88 157.15 35.11 162.84 35.11 162.84 58.78 175.65 58.78 175.65 63.88 157.15 63.88"/>
  <polygon class="cls-1" points="179.97 63.88 179.97 35.11 185.66 35.11 185.66 58.79 198.48 58.79 198.48 63.88 179.97 63.88"/>
</svg>